<mxfile host="65bd71144e" modified="2021-01-11T07:17:48.104Z" agent="5.0 (Macintosh; Intel Mac OS X 10_15_6) AppleWebKit/537.36 (KHTML, like Gecko) Code/1.52.1 Chrome/83.0.4103.122 Electron/9.3.5 Safari/537.36" version="13.10.0" etag="zmRhInJ55mVs9kVqbyeT" type="embed">
    <diagram id="wCUoMswQYASC0kONsVFo" name="Page-1">
        <mxGraphModel dx="1762" dy="964" grid="1" gridSize="10" guides="1" tooltips="1" connect="1" arrows="1" fold="1" page="1" pageScale="1" pageWidth="850" pageHeight="1100" math="0" shadow="0">
            <root>
                <mxCell id="0"/>
                <mxCell id="1" parent="0"/>
                <mxCell id="3" value="correlationId" style="rounded=0;whiteSpace=wrap;html=1;fontSize=14;fillColor=#fa6800;strokeColor=#C73500;fontColor=#ffffff;fontStyle=1" vertex="1" parent="1">
                    <mxGeometry x="60" y="450" width="160" height="60" as="geometry"/>
                </mxCell>
                <mxCell id="4" value="brokerCount" style="rounded=0;whiteSpace=wrap;html=1;fontSize=14;fillColor=#f0a30a;strokeColor=#BD7000;fontColor=#ffffff;fontStyle=1" vertex="1" parent="1">
                    <mxGeometry x="220" y="450" width="160" height="60" as="geometry"/>
                </mxCell>
                <mxCell id="5" value="topicCount" style="rounded=0;whiteSpace=wrap;html=1;fontSize=14;fillColor=#008a00;strokeColor=#005700;fontColor=#ffffff;fontStyle=1" vertex="1" parent="1">
                    <mxGeometry x="740" y="450" width="160" height="60" as="geometry"/>
                </mxCell>
                <mxCell id="6" value="topic1" style="rounded=0;whiteSpace=wrap;html=1;fontSize=14;fillColor=#60a917;strokeColor=#2D7600;fontColor=#ffffff;fontStyle=1" vertex="1" parent="1">
                    <mxGeometry x="900" y="450" width="120" height="60" as="geometry"/>
                </mxCell>
                <mxCell id="8" value="......" style="rounded=0;whiteSpace=wrap;html=1;fontSize=14;fillColor=#60a917;strokeColor=#2D7600;fontColor=#ffffff;fontStyle=1" vertex="1" parent="1">
                    <mxGeometry x="1020" y="450" width="120" height="60" as="geometry"/>
                </mxCell>
                <mxCell id="9" value="topicN" style="rounded=0;whiteSpace=wrap;html=1;fontSize=14;fillColor=#60a917;strokeColor=#2D7600;fontColor=#ffffff;fontStyle=1" vertex="1" parent="1">
                    <mxGeometry x="1140" y="450" width="120" height="60" as="geometry"/>
                </mxCell>
                <mxCell id="11" value="int" style="text;html=1;strokeColor=none;fillColor=none;align=center;verticalAlign=middle;whiteSpace=wrap;rounded=0;fontSize=14;fontStyle=1;fontColor=#006666;" vertex="1" parent="1">
                    <mxGeometry x="120" y="428" width="40" height="20" as="geometry"/>
                </mxCell>
                <mxCell id="12" value="int" style="text;html=1;strokeColor=none;fillColor=none;align=center;verticalAlign=middle;whiteSpace=wrap;rounded=0;fontSize=14;fontStyle=1;fontColor=#006666;" vertex="1" parent="1">
                    <mxGeometry x="800" y="428" width="40" height="20" as="geometry"/>
                </mxCell>
                <mxCell id="13" value="int" style="text;html=1;strokeColor=none;fillColor=none;align=center;verticalAlign=middle;whiteSpace=wrap;rounded=0;fontSize=14;fontStyle=1;fontColor=#006666;" vertex="1" parent="1">
                    <mxGeometry x="280" y="428" width="40" height="20" as="geometry"/>
                </mxCell>
                <mxCell id="15" value="string" style="text;html=1;strokeColor=none;fillColor=none;align=center;verticalAlign=middle;whiteSpace=wrap;rounded=0;fontSize=14;fontStyle=1;fontColor=#006666;" vertex="1" parent="1">
                    <mxGeometry x="400" y="610" width="40" height="20" as="geometry"/>
                </mxCell>
                <mxCell id="17" value="Broker1" style="rounded=0;whiteSpace=wrap;html=1;fillColor=#e3c800;strokeColor=#B09500;fontColor=#ffffff;fontStyle=1" vertex="1" parent="1">
                    <mxGeometry x="380" y="450" width="120" height="60" as="geometry"/>
                </mxCell>
                <mxCell id="18" value="......" style="rounded=0;whiteSpace=wrap;html=1;fillColor=#e3c800;strokeColor=#B09500;fontColor=#ffffff;fontStyle=1" vertex="1" parent="1">
                    <mxGeometry x="500" y="450" width="120" height="60" as="geometry"/>
                </mxCell>
                <mxCell id="19" value="BrokerN" style="rounded=0;whiteSpace=wrap;html=1;fillColor=#e3c800;strokeColor=#B09500;fontColor=#ffffff;fontStyle=1" vertex="1" parent="1">
                    <mxGeometry x="620" y="450" width="120" height="60" as="geometry"/>
                </mxCell>
                <mxCell id="20" value="id" style="rounded=0;whiteSpace=wrap;html=1;fillColor=#ffe6cc;strokeColor=#d79b00;fontStyle=1" vertex="1" parent="1">
                    <mxGeometry x="270" y="630" width="100" height="50" as="geometry"/>
                </mxCell>
                <mxCell id="21" value="host" style="rounded=0;whiteSpace=wrap;html=1;fillColor=#ffe6cc;strokeColor=#d79b00;fontStyle=1" vertex="1" parent="1">
                    <mxGeometry x="370" y="630" width="100" height="50" as="geometry"/>
                </mxCell>
                <mxCell id="22" value="port" style="rounded=0;whiteSpace=wrap;html=1;fillColor=#ffe6cc;strokeColor=#d79b00;fontStyle=1" vertex="1" parent="1">
                    <mxGeometry x="470" y="630" width="100" height="50" as="geometry"/>
                </mxCell>
                <mxCell id="24" value="errorCode" style="rounded=0;whiteSpace=wrap;html=1;fillColor=#f8cecc;strokeColor=#b85450;fontStyle=1" vertex="1" parent="1">
                    <mxGeometry x="720" y="630" width="100" height="50" as="geometry"/>
                </mxCell>
                <mxCell id="25" value="topicName" style="rounded=0;whiteSpace=wrap;html=1;fillColor=#cce5ff;strokeColor=#36393d;fontStyle=1" vertex="1" parent="1">
                    <mxGeometry x="820" y="630" width="100" height="50" as="geometry"/>
                </mxCell>
                <mxCell id="26" value="numPartitions" style="rounded=0;whiteSpace=wrap;html=1;fillColor=#ffcc99;strokeColor=#36393d;fontStyle=1" vertex="1" parent="1">
                    <mxGeometry x="920" y="630" width="100" height="50" as="geometry"/>
                </mxCell>
                <mxCell id="27" value="partition1" style="rounded=0;whiteSpace=wrap;html=1;fillColor=#ffe6cc;strokeColor=#d79b00;fontStyle=1" vertex="1" parent="1">
                    <mxGeometry x="1020" y="630" width="100" height="50" as="geometry"/>
                </mxCell>
                <mxCell id="28" value="......" style="rounded=0;whiteSpace=wrap;html=1;fillColor=#ffe6cc;strokeColor=#d79b00;fontStyle=1" vertex="1" parent="1">
                    <mxGeometry x="1120" y="630" width="100" height="50" as="geometry"/>
                </mxCell>
                <mxCell id="29" value="partitionN" style="rounded=0;whiteSpace=wrap;html=1;fillColor=#ffe6cc;strokeColor=#d79b00;fontStyle=1" vertex="1" parent="1">
                    <mxGeometry x="1220" y="630" width="100" height="50" as="geometry"/>
                </mxCell>
                <mxCell id="30" value="int" style="text;html=1;strokeColor=none;fillColor=none;align=center;verticalAlign=middle;whiteSpace=wrap;rounded=0;fontSize=14;fontStyle=1;fontColor=#006666;" vertex="1" parent="1">
                    <mxGeometry x="950" y="610" width="40" height="20" as="geometry"/>
                </mxCell>
                <mxCell id="31" value="short" style="text;html=1;strokeColor=none;fillColor=none;align=center;verticalAlign=middle;whiteSpace=wrap;rounded=0;fontSize=14;fontStyle=1;fontColor=#006666;" vertex="1" parent="1">
                    <mxGeometry x="750" y="610" width="40" height="20" as="geometry"/>
                </mxCell>
                <mxCell id="32" value="string" style="text;html=1;strokeColor=none;fillColor=none;align=center;verticalAlign=middle;whiteSpace=wrap;rounded=0;fontSize=14;fontStyle=1;fontColor=#006666;" vertex="1" parent="1">
                    <mxGeometry x="850" y="610" width="40" height="20" as="geometry"/>
                </mxCell>
                <mxCell id="33" value="int" style="text;html=1;strokeColor=none;fillColor=none;align=center;verticalAlign=middle;whiteSpace=wrap;rounded=0;fontSize=14;fontStyle=1;fontColor=#006666;" vertex="1" parent="1">
                    <mxGeometry x="300" y="610" width="40" height="20" as="geometry"/>
                </mxCell>
                <mxCell id="34" value="int" style="text;html=1;strokeColor=none;fillColor=none;align=center;verticalAlign=middle;whiteSpace=wrap;rounded=0;fontSize=14;fontStyle=1;fontColor=#006666;" vertex="1" parent="1">
                    <mxGeometry x="500" y="610" width="40" height="20" as="geometry"/>
                </mxCell>
                <mxCell id="35" value="" style="endArrow=none;dashed=1;html=1;exitX=0;exitY=0;exitDx=0;exitDy=0;entryX=0;entryY=1;entryDx=0;entryDy=0;" edge="1" parent="1" source="20" target="17">
                    <mxGeometry width="50" height="50" relative="1" as="geometry">
                        <mxPoint x="880" y="550" as="sourcePoint"/>
                        <mxPoint x="930" y="500" as="targetPoint"/>
                    </mxGeometry>
                </mxCell>
                <mxCell id="36" value="" style="endArrow=none;dashed=1;html=1;exitX=1;exitY=0;exitDx=0;exitDy=0;entryX=0;entryY=1;entryDx=0;entryDy=0;" edge="1" parent="1" source="22" target="18">
                    <mxGeometry width="50" height="50" relative="1" as="geometry">
                        <mxPoint x="280" y="640" as="sourcePoint"/>
                        <mxPoint x="390" y="520" as="targetPoint"/>
                    </mxGeometry>
                </mxCell>
                <mxCell id="37" value="Broker" style="text;html=1;strokeColor=none;fillColor=none;align=center;verticalAlign=middle;whiteSpace=wrap;rounded=0;fontSize=20;fontStyle=1" vertex="1" parent="1">
                    <mxGeometry x="375" y="710" width="90" height="20" as="geometry"/>
                </mxCell>
                <mxCell id="38" value="errorCode" style="rounded=0;whiteSpace=wrap;html=1;fontStyle=1;fillColor=#f8cecc;strokeColor=#b85450;" vertex="1" parent="1">
                    <mxGeometry x="730" y="840" width="100" height="50" as="geometry"/>
                </mxCell>
                <mxCell id="39" value="partitionId" style="rounded=0;whiteSpace=wrap;html=1;fontStyle=1;fillColor=#cce5ff;strokeColor=#36393d;" vertex="1" parent="1">
                    <mxGeometry x="830" y="840" width="100" height="50" as="geometry"/>
                </mxCell>
                <mxCell id="40" value="short" style="text;html=1;strokeColor=none;fillColor=none;align=center;verticalAlign=middle;whiteSpace=wrap;rounded=0;fontSize=14;fontStyle=1;fontColor=#006666;" vertex="1" parent="1">
                    <mxGeometry x="760" y="820" width="40" height="20" as="geometry"/>
                </mxCell>
                <mxCell id="41" value="int" style="text;html=1;strokeColor=none;fillColor=none;align=center;verticalAlign=middle;whiteSpace=wrap;rounded=0;fontSize=14;fontStyle=1;fontColor=#006666;" vertex="1" parent="1">
                    <mxGeometry x="860" y="820" width="40" height="20" as="geometry"/>
                </mxCell>
                <mxCell id="42" value="leaderId" style="rounded=0;whiteSpace=wrap;html=1;fontStyle=1;fillColor=#b0e3e6;strokeColor=#0e8088;" vertex="1" parent="1">
                    <mxGeometry x="930" y="840" width="100" height="50" as="geometry"/>
                </mxCell>
                <mxCell id="43" value="int" style="text;html=1;strokeColor=none;fillColor=none;align=center;verticalAlign=middle;whiteSpace=wrap;rounded=0;fontSize=14;fontStyle=1;fontColor=#006666;" vertex="1" parent="1">
                    <mxGeometry x="960" y="820" width="40" height="20" as="geometry"/>
                </mxCell>
                <mxCell id="44" value="numReplicas" style="rounded=0;whiteSpace=wrap;html=1;fontStyle=1;fillColor=#d0cee2;strokeColor=#56517e;" vertex="1" parent="1">
                    <mxGeometry x="1030" y="840" width="100" height="50" as="geometry"/>
                </mxCell>
                <mxCell id="45" value="int" style="text;html=1;strokeColor=none;fillColor=none;align=center;verticalAlign=middle;whiteSpace=wrap;rounded=0;fontSize=14;fontStyle=1;fontColor=#006666;" vertex="1" parent="1">
                    <mxGeometry x="1060" y="820" width="40" height="20" as="geometry"/>
                </mxCell>
                <mxCell id="46" value="replicaId1" style="rounded=0;whiteSpace=wrap;html=1;fontStyle=1;fillColor=#bac8d3;strokeColor=#23445d;" vertex="1" parent="1">
                    <mxGeometry x="1130" y="840" width="100" height="50" as="geometry"/>
                </mxCell>
                <mxCell id="47" value="int" style="text;html=1;strokeColor=none;fillColor=none;align=center;verticalAlign=middle;whiteSpace=wrap;rounded=0;fontSize=14;fontStyle=1;fontColor=#006666;" vertex="1" parent="1">
                    <mxGeometry x="1160" y="820" width="40" height="20" as="geometry"/>
                </mxCell>
                <mxCell id="48" value="......." style="rounded=0;whiteSpace=wrap;html=1;fontStyle=1;fillColor=#bac8d3;strokeColor=#23445d;" vertex="1" parent="1">
                    <mxGeometry x="1230" y="840" width="100" height="50" as="geometry"/>
                </mxCell>
                <mxCell id="49" value="int" style="text;html=1;strokeColor=none;fillColor=none;align=center;verticalAlign=middle;whiteSpace=wrap;rounded=0;fontSize=14;fontStyle=1;fontColor=#006666;" vertex="1" parent="1">
                    <mxGeometry x="1260" y="820" width="40" height="20" as="geometry"/>
                </mxCell>
                <mxCell id="50" value="replicaIdN" style="rounded=0;whiteSpace=wrap;html=1;fontStyle=1;fillColor=#bac8d3;strokeColor=#23445d;" vertex="1" parent="1">
                    <mxGeometry x="1330" y="840" width="100" height="50" as="geometry"/>
                </mxCell>
                <mxCell id="51" value="int" style="text;html=1;strokeColor=none;fillColor=none;align=center;verticalAlign=middle;whiteSpace=wrap;rounded=0;fontSize=14;fontStyle=1;fontColor=#006666;" vertex="1" parent="1">
                    <mxGeometry x="1360" y="820" width="40" height="20" as="geometry"/>
                </mxCell>
                <mxCell id="52" value="numIsr" style="rounded=0;whiteSpace=wrap;html=1;fontStyle=1;fillColor=#d5e8d4;strokeColor=#82b366;gradientColor=#97d077;" vertex="1" parent="1">
                    <mxGeometry x="1430" y="840" width="100" height="50" as="geometry"/>
                </mxCell>
                <mxCell id="53" value="int" style="text;html=1;strokeColor=none;fillColor=none;align=center;verticalAlign=middle;whiteSpace=wrap;rounded=0;fontSize=14;fontStyle=1;fontColor=#006666;" vertex="1" parent="1">
                    <mxGeometry x="1460" y="820" width="40" height="20" as="geometry"/>
                </mxCell>
                <mxCell id="54" value="isrId1" style="rounded=0;whiteSpace=wrap;html=1;fontStyle=1;fillColor=#cdeb8b;strokeColor=#36393d;" vertex="1" parent="1">
                    <mxGeometry x="1530" y="840" width="100" height="50" as="geometry"/>
                </mxCell>
                <mxCell id="55" value="int" style="text;html=1;strokeColor=none;fillColor=none;align=center;verticalAlign=middle;whiteSpace=wrap;rounded=0;fontSize=14;fontStyle=1;fontColor=#006666;" vertex="1" parent="1">
                    <mxGeometry x="1560" y="820" width="40" height="20" as="geometry"/>
                </mxCell>
                <mxCell id="56" value="......." style="rounded=0;whiteSpace=wrap;html=1;fontStyle=1;fillColor=#cdeb8b;strokeColor=#36393d;" vertex="1" parent="1">
                    <mxGeometry x="1630" y="840" width="100" height="50" as="geometry"/>
                </mxCell>
                <mxCell id="57" value="int" style="text;html=1;strokeColor=none;fillColor=none;align=center;verticalAlign=middle;whiteSpace=wrap;rounded=0;fontSize=14;fontStyle=1;fontColor=#006666;" vertex="1" parent="1">
                    <mxGeometry x="1660" y="820" width="40" height="20" as="geometry"/>
                </mxCell>
                <mxCell id="58" value="isrIdN" style="rounded=0;whiteSpace=wrap;html=1;fontStyle=1;fillColor=#cdeb8b;strokeColor=#36393d;" vertex="1" parent="1">
                    <mxGeometry x="1730" y="840" width="100" height="50" as="geometry"/>
                </mxCell>
                <mxCell id="59" value="int" style="text;html=1;strokeColor=none;fillColor=none;align=center;verticalAlign=middle;whiteSpace=wrap;rounded=0;fontSize=14;fontStyle=1;fontColor=#006666;" vertex="1" parent="1">
                    <mxGeometry x="1760" y="820" width="40" height="10" as="geometry"/>
                </mxCell>
                <mxCell id="62" value="" style="endArrow=none;dashed=1;html=1;fontSize=20;exitX=0;exitY=0;exitDx=0;exitDy=0;entryX=1;entryY=1;entryDx=0;entryDy=0;" edge="1" parent="1" source="24" target="5">
                    <mxGeometry width="50" height="50" relative="1" as="geometry">
                        <mxPoint x="1130" y="590" as="sourcePoint"/>
                        <mxPoint x="1180" y="540" as="targetPoint"/>
                    </mxGeometry>
                </mxCell>
                <mxCell id="63" value="" style="endArrow=none;dashed=1;html=1;fontSize=20;exitX=0;exitY=1;exitDx=0;exitDy=0;entryX=1;entryY=0;entryDx=0;entryDy=0;" edge="1" parent="1" source="8" target="29">
                    <mxGeometry width="50" height="50" relative="1" as="geometry">
                        <mxPoint x="1130" y="590" as="sourcePoint"/>
                        <mxPoint x="1180" y="540" as="targetPoint"/>
                    </mxGeometry>
                </mxCell>
                <mxCell id="64" value="" style="endArrow=none;dashed=1;html=1;fontSize=20;exitX=1;exitY=1;exitDx=0;exitDy=0;entryX=0;entryY=0;entryDx=0;entryDy=0;" edge="1" parent="1" source="28" target="38">
                    <mxGeometry width="50" height="50" relative="1" as="geometry">
                        <mxPoint x="1010" y="590" as="sourcePoint"/>
                        <mxPoint x="1060" y="540" as="targetPoint"/>
                    </mxGeometry>
                </mxCell>
                <mxCell id="65" value="" style="endArrow=none;dashed=1;html=1;fontSize=20;exitX=1;exitY=1;exitDx=0;exitDy=0;entryX=1;entryY=0;entryDx=0;entryDy=0;" edge="1" parent="1" source="29" target="58">
                    <mxGeometry width="50" height="50" relative="1" as="geometry">
                        <mxPoint x="1010" y="590" as="sourcePoint"/>
                        <mxPoint x="1060" y="540" as="targetPoint"/>
                    </mxGeometry>
                </mxCell>
                <mxCell id="66" value="TopicMetadata" style="text;html=1;strokeColor=none;fillColor=none;align=center;verticalAlign=middle;whiteSpace=wrap;rounded=0;fontSize=20;fontStyle=1" vertex="1" parent="1">
                    <mxGeometry x="820" y="710" width="190" height="20" as="geometry"/>
                </mxCell>
                <mxCell id="67" value="PartitionMetadata" style="text;html=1;strokeColor=none;fillColor=none;align=center;verticalAlign=middle;whiteSpace=wrap;rounded=0;fontSize=20;fontStyle=1" vertex="1" parent="1">
                    <mxGeometry x="1160" y="930" width="190" height="20" as="geometry"/>
                </mxCell>
                <mxCell id="68" value="TopicMetadataResponse" style="text;html=1;strokeColor=none;fillColor=none;align=center;verticalAlign=middle;whiteSpace=wrap;rounded=0;fontSize=20;fontStyle=1" vertex="1" parent="1">
                    <mxGeometry x="500" y="370" width="280" height="20" as="geometry"/>
                </mxCell>
            </root>
        </mxGraphModel>
    </diagram>
</mxfile>